HIERARCHY
ROOT Bip001_Pelvis
{
  OFFSET 32.8599 95.8771 -27.9544
  CHANNELS 6 Xposition Yposition Zposition Zrotation Xrotation Yrotation
  JOINT Bip001_Spine
  {
    OFFSET 1.4188e-005 10.2191 -0.0116013
    CHANNELS 3 Zrotation Xrotation Yrotation
    JOINT Bip001_L_Thigh
    {
      OFFSET 11.0458 -10.2191 0.0116197
      CHANNELS 3 Zrotation Xrotation Yrotation
      JOINT Bip001_L_Calf
      {
        OFFSET -0.707118 -44.0221 0.360014
        CHANNELS 3 Zrotation Xrotation Yrotation
        JOINT Bip001_L_Foot
        {
          OFFSET -0.651902 -40.5938 -3.56146
          CHANNELS 3 Zrotation Xrotation Yrotation
          JOINT Bip001_L_Toe0
          {
            OFFSET 0.0530839 -10.2181 13.1504
            CHANNELS 3 Zrotation Xrotation Yrotation
            End Site
            {
              OFFSET -1.02532e-005 0 7.55606
            }
          }
        }
      }
    }
    JOINT Bip001_R_Thigh
    {
      OFFSET -11.0458 -10.2191 0.0115893
      CHANNELS 3 Zrotation Xrotation Yrotation
      JOINT Bip001_R_Calf
      {
        OFFSET 0.706994 -44.0221 0.35984
        CHANNELS 3 Zrotation Xrotation Yrotation
        JOINT Bip001_R_Foot
        {
          OFFSET 0.651787 -40.5938 -3.5613
          CHANNELS 3 Zrotation Xrotation Yrotation
          JOINT Bip001_R_Toe0
          {
            OFFSET -0.0531479 -10.2181 13.1504
            CHANNELS 3 Zrotation Xrotation Yrotation
            End Site
            {
              OFFSET -1.02894e-005 0 7.55606
            }
          }
        }
      }
    }
    JOINT Bip001_Spine1
    {
      OFFSET 1.87041e-005 14.5736 1.08638
      CHANNELS 3 Zrotation Xrotation Yrotation
      JOINT Bip001_Spine2
      {
        OFFSET 2.24614e-005 14.5058 -1.69078
        CHANNELS 3 Zrotation Xrotation Yrotation
        JOINT Bip001_Neck
        {
          OFFSET 2.20278e-005 15.3945 -0.489414
          CHANNELS 3 Zrotation Xrotation Yrotation
          JOINT Bip001_L_Clavicle
          {
            OFFSET 6.06036 -0.000579998 0.00836775
            CHANNELS 3 Zrotation Xrotation Yrotation
            JOINT Bip001_L_UpperArm
            {
              OFFSET 11.5509 -0.0600302 0.00193952
              CHANNELS 3 Zrotation Xrotation Yrotation
              JOINT Bip001_L_Forearm
              {
                OFFSET 25.9523 0.0806089 -2.15551
                CHANNELS 3 Zrotation Xrotation Yrotation
                JOINT Bip001_L_Hand
                {
                  OFFSET 32.2475 0.153767 1.63968
                  CHANNELS 3 Zrotation Xrotation Yrotation
                  JOINT Bip001_L_Finger0
                  {
                    OFFSET 6.04639 -2.20976 5.90322
                    CHANNELS 3 Zrotation Xrotation Yrotation
                    End Site
                    {
                      OFFSET 4.22375 -1.43895 0.606486
                    }
                  }
                  JOINT Bip001_L_Finger1
                  {
                    OFFSET 11.0826 -0.704819 -0.198153
                    CHANNELS 3 Zrotation Xrotation Yrotation
                    End Site
                    {
                      OFFSET 6.20027 -0.397518 -0.0787166
                    }
                  }
                }
              }
            }
          }
          JOINT Bip001_R_Clavicle
          {
            OFFSET -6.06036 -0.000563197 0.00835105
            CHANNELS 3 Zrotation Xrotation Yrotation
            JOINT Bip001_R_UpperArm
            {
              OFFSET -11.5509 -0.0599978 0.00190698
              CHANNELS 3 Zrotation Xrotation Yrotation
              JOINT Bip001_R_Forearm
              {
                OFFSET -25.9523 0.0806819 -2.1559
                CHANNELS 3 Zrotation Xrotation Yrotation
                JOINT Bip001_R_Hand
                {
                  OFFSET -32.2476 0.153857 1.63991
                  CHANNELS 3 Zrotation Xrotation Yrotation
                  JOINT Bip001_R_Finger0
                  {
                    OFFSET -6.04642 -2.20975 5.9032
                    CHANNELS 3 Zrotation Xrotation Yrotation
                    End Site
                    {
                      OFFSET -4.22376 -1.43894 0.606473
                    }
                  }
                  JOINT Bip001_R_Finger1
                  {
                    OFFSET -11.0826 -0.70479 -0.198183
                    CHANNELS 3 Zrotation Xrotation Yrotation
                    End Site
                    {
                      OFFSET -6.20028 -0.397501 -0.0787337
                    }
                  }
                }
              }
            }
          }
          JOINT Bip001_Head
          {
            OFFSET 1.09673e-005 11.2744 2.05948
            CHANNELS 3 Zrotation Xrotation Yrotation
            End Site
            {
              OFFSET 2.89576e-005 20.8808 -2.77728e-005
            }
          }
        }
      }
    }
  }
}
MOTION
Frames:	16
Frame Time:	0.04
32.904 95.8106 -28.0603 0.678888 -0.317189 1.39425 -0.278165 2.30239 -0.128709 4.31203 -2.42513 7.14896 0.0774145 6.12201 -11.0276 5.93571 -1.21368 -0.235273 -1.04349 -5.86557 2.45343 -3.67498 -3.61833 1.11769 1.25384 11.583 0.0252845 -6.3709 -10.0178 -0.199841 1.99256 -7.07782 2.44379 -0.539793 4.60537 -0.24676 -0.539793 4.60537 -0.24676 1.66326 -10.702 -2.06442 -25.9919 10.9524 2.6897 -56.8008 43.0752 2.99725 17.5369 4.90468 -22.1119 9.96909 1.52835 -5.58689 8.82781e-032 -3.18055e-015 1.59028e-015 3.18055e-015 -3.18056e-015 1.59028e-015 26.1131 17.2993 13.6511 53.9988 34.7339 2.17064 -8.9684 5.3261 5.24699 -4.71933 6.65516 9.60216 -1.76556e-031 -6.36111e-015 -1.59028e-015 -1.59028e-015 0 -7.95139e-016 -0.7609 -2.88278 -1.48879 
32.91 95.8429 -28.0687 0.727214 -0.38361 1.25589 -0.286983 2.28105 -0.159572 4.2695 -2.16153 5.76576 -0.0507366 5.80021 -9.52497 5.60633 -1.23205 -0.225051 -1.25643 -5.61327 2.66888 -3.76598 -3.43013 1.23771 1.35785 11.3075 -0.151405 -6.30223 -9.92424 0.00973232 1.9676 -6.99996 2.41938 -0.566968 4.56287 -0.308238 -0.567109 4.56288 -0.308233 1.80798 -10.1998 -1.99104 -25.8862 10.5616 2.26909 -57.1188 43.0458 2.8618 17.21 4.57075 -21.3955 9.98441 1.78836 -5.30857 8.82781e-032 -3.18055e-015 1.59028e-015 -3.18055e-015 -3.18056e-015 1.59028e-015 25.6885 16.6972 13.616 53.8253 34.7581 2.54649 -9.20652 6.29868 5.38413 -5.3196 9.38709 8.65511 1.59028e-015 3.18055e-015 7.95139e-016 0 3.18056e-015 -0 -0.732888 -3.47974 -1.39217 
32.907 95.8462 -28.0693 0.78086 -0.446206 1.21652 -0.295599 2.28041 -0.191265 4.2213 -2.01889 5.5462 -0.0815924 5.64832 -9.25619 5.63966 -1.13182 -0.233728 -1.26384 -5.64793 2.6936 -3.82643 -3.40862 1.20785 1.36815 11.3754 -0.15504 -6.26377 -9.97388 0.10793 1.95269 -6.94672 2.39527 -0.583806 4.55889 -0.370896 -0.583615 4.55888 -0.370985 1.819 -10.2629 -1.96713 -25.8453 10.6386 2.23837 -56.9242 43.0359 2.59701 16.7345 3.94199 -21.1391 9.5744 2.06202 -4.85341 8.82781e-032 -3.18055e-015 1.59028e-015 8.82782e-032 -3.18056e-015 1.59028e-015 25.5476 16.7003 13.5333 53.7637 34.5049 2.41071 -9.50571 6.39988 6.01618 -4.51988 11.0102 7.87683 1.59028e-015 3.18055e-015 -0 3.18055e-015 6.36111e-015 -0 -0.736574 -3.43579 -1.37025 
32.8876 95.8466 -28.0623 0.817606 -0.45362 1.17496 -0.299602 2.28018 -0.200823 4.20098 -1.98535 5.73257 -0.0457753 5.6387 -9.30733 5.31812 -1.33775 -0.211619 -1.33707 -5.45403 2.71853 -3.8617 -3.42342 1.20514 1.37515 11.4234 -0.153131 -6.25976 -10.0247 0.156084 1.9536 -6.95787 2.41314 -0.583081 4.5587 -0.384403 -0.583002 4.5587 -0.384303 1.74234 -10.1672 -1.96146 -25.7538 10.5836 2.11001 -56.607 42.9937 2.32112 16.4171 3.47707 -21.0832 9.03913 2.14227 -4.6863 7.94503e-031 9.54166e-015 -4.77083e-015 -3.18055e-015 9.54167e-015 -3.18055e-015 25.5314 16.6099 13.6017 53.7591 34.4513 2.14958 -9.52589 6.94668 6.40091 -3.99382 10.061 8.4378 1.59028e-015 0 -3.97569e-016 3.18055e-015 -3.18056e-015 -3.97569e-016 -0.715321 -3.77429 -1.38352 
32.8807 95.8439 -28.0474 0.880557 -0.494537 1.10033 -0.304395 2.2801 -0.205717 4.1187 -1.84931 5.69088 -0.01476 5.48647 -9.20095 5.41196 -1.19703 -0.221392 -1.2678 -5.52408 2.69063 -3.92466 -3.41557 1.21644 1.39269 11.4969 -0.165076 -6.25272 -10.0878 0.223661 1.95256 -6.95784 2.41262 -0.602518 4.55861 -0.381471 -0.602461 4.55861 -0.381328 1.84445 -9.86878 -1.92418 -25.6345 10.3693 1.78986 -56.6588 42.9426 2.08695 16.4211 3.64101 -20.7702 9.12705 2.21782 -4.87237 8.82781e-032 -3.18055e-015 1.59028e-015 8.82782e-032 -3.18056e-015 1.59028e-015 25.2555 16.3843 13.9788 54.026 34.5713 1.83113 -9.26186 6.56093 6.50222 -4.08777 8.8913 9.6393 -1.59028e-015 6.36111e-015 -0 -1.59028e-015 3.18056e-015 -7.95139e-016 -0.754607 -4.26564 -1.32125 
32.8763 95.8361 -28.0241 0.960563 -0.549155 1.12162 -0.316617 2.2799 -0.211741 4.02622 -1.66245 5.56194 -0.0562355 5.20976 -9.16822 5.95797 -0.69263 -0.273642 -1.08221 -5.89983 2.50362 -4.00464 -3.38637 1.10054 1.4049 11.6053 -0.176048 -6.24109 -10.2005 0.29478 1.95129 -6.93805 2.41252 -0.622992 4.55855 -0.411347 -0.62307 4.55855 -0.411343 1.91364 -9.8792 -1.89071 -25.5382 10.393 1.74527 -56.7117 42.8256 2.02387 16.3879 3.44877 -20.8517 9.13249 2.217 -4.8361 -3.18055e-015 -3.18055e-015 1.59028e-015 -6.36111e-015 -3.18056e-015 3.18055e-015 25.0706 16.4438 14.2157 54.7176 35.2509 0.831006 -9.61711 5.91319 7.19599 -3.91805 8.24729 10.2058 -3.18055e-015 3.18055e-015 -0 -3.18055e-015 0 -0 -0.741773 -4.09934 -1.27607 
32.8584 95.835 -27.9796 0.997917 -0.614295 1.15463 -0.321901 2.27931 -0.217632 4.00575 -1.62303 6.26383 0.0626827 5.3361 -9.78394 5.53277 -1.05705 -0.235157 -1.15547 -5.6311 2.571 -4.02922 -3.31959 0.951561 1.37416 11.6855 -0.194947 -6.19621 -10.2711 0.444624 1.95199 -6.94593 2.41654 -0.622553 4.55854 -0.423387 -0.622694 4.55853 -0.42329 2.09402 -9.28788 -1.89822 -25.6134 9.86059 1.43744 -56.7392 42.6246 2.22923 16.2971 2.80045 -21.2622 9.20338 2.06385 -4.8104 -8.82781e-032 3.18055e-015 1.59028e-015 3.18055e-015 3.18056e-015 1.59028e-015 24.8278 15.9192 14.5259 55.0985 35.4205 0.0703212 -9.8052 5.44195 7.89972 -3.46361 7.42076 10.0965 -1.32417e-031 -9.54166e-015 -7.95139e-016 -3.18055e-015 -3.18056e-015 -0 -0.940754 -4.96483 -1.21549 
32.86 95.8324 -27.9683 1.09417 -0.657602 1.18137 -0.324336 2.26649 -0.242037 3.94386 -1.56226 6.26184 0.0540877 5.35022 -9.73617 5.21362 -1.28416 -0.210759 -1.28872 -5.44803 2.6764 -4.11204 -3.33932 0.866311 1.35105 11.8663 -0.148589 -6.22976 -10.3674 0.468516 1.95333 -6.94907 2.39934 -0.636312 4.5343 -0.472486 -0.636501 4.53429 -0.472539 2.17553 -8.72265 -1.79563 -25.5065 9.4391 0.919742 -57.1065 42.2061 2.73528 16.1612 2.018 -21.7461 9.37406 1.84351 -4.78138 -3.18055e-015 -3.18055e-015 1.59028e-015 -0 -6.36111e-015 -0 24.459 15.3552 14.7817 55.4324 35.0626 -0.205196 -9.44798 4.82554 7.86779 -3.23309 6.48195 10.2188 -1.59028e-015 0 -0 -3.18055e-015 0 7.95139e-016 -1.11121 -5.39497 -1.05389 
32.8766 95.8264 -27.9554 1.2098 -0.743958 1.24123 -0.324105 2.25703 -0.282768 3.88785 -1.43031 6.29932 -0.0449048 5.31655 -9.82436 5.0209 -1.41498 -0.19802 -1.45119 -5.26416 2.81737 -4.21933 -3.32379 0.660092 1.29375 12.0914 -0.072114 -6.23182 -10.4847 0.567279 1.96256 -6.97047 2.39628 -0.655049 4.51006 -0.553032 -0.655049 4.51007 -0.553032 1.80237 -8.40627 -1.66209 -24.8715 9.26123 0.539517 -57.5608 42.0012 3.09166 15.8721 1.05484 -21.9003 9.47789 1.65942 -4.55275 6.36111e-015 6.36111e-015 -1.59028e-015 3.18055e-015 6.36111e-015 -3.18055e-015 24.5108 15.0961 15.2707 55.852 34.3739 -1.36081 -9.19795 3.14329 8.94611 -3.1462 5.90104 10.3068 -1.59028e-015 -6.36111e-015 1.59028e-015 -3.18055e-015 0 7.95139e-016 -0.767224 -5.39018 -1.07119 
32.8925 95.8491 -27.9771 1.29493 -0.772947 1.29461 -0.324865 2.25753 -0.279617 3.8618 -1.18495 4.20613 -0.397072 4.77237 -7.70723 5.06494 -1.07243 -0.211915 -1.34347 -5.29418 2.74151 -4.28685 -3.27857 0.482051 1.209 12.0492 -0.0219741 -6.21672 -10.4569 0.660988 1.98547 -7.04491 2.41833 -0.6566 4.51664 -0.54853 -0.656468 4.51664 -0.55021 1.44362 -8.53209 -1.66988 -24.2253 9.40505 0.52318 -57.922 42.1945 2.95805 15.8114 0.440284 -21.6962 9.29439 1.76791 -4.36837 -9.54166e-015 0 1.59028e-015 -6.36111e-015 -3.18056e-015 3.18055e-015 24.672 15.1733 15.2241 55.9137 34.2164 -3.29699 -9.38698 1.0695 11.593 -2.62235 6.77663 10.3115 8.82781e-032 6.36111e-015 -7.95139e-016 8.82782e-032 6.36111e-015 -7.95139e-016 -0.558701 -5.32763 -1.19585 
32.9183 95.8461 -27.9843 1.34812 -0.745586 1.4041 -0.325332 2.22758 -0.276461 3.78666 -1.21742 4.78473 -0.327356 4.81034 -8.45686 5.01188 -1.09757 -0.212543 -1.42511 -5.25102 2.77648 -4.32925 -3.24833 0.298803 1.13567 12.0414 0.0308403 -6.21445 -10.4831 0.643693 1.99278 -7.07727 2.45912 -0.654135 4.4567 -0.540595 -0.654528 4.4567 -0.54061 1.30069 -8.38364 -1.73491 -24.1143 9.22805 0.605918 -57.9256 42.3242 2.98246 15.9515 0.330627 -21.615 9.39895 1.83732 -4.26272 6.36111e-015 -9.54166e-015 3.18055e-015 5.29669e-031 -9.54167e-015 3.18055e-015 25.0495 15.0339 15.0763 55.4283 32.7512 -4.70368 -10.13 0.887996 13.1498 -3.20585 9.58684 12.0279 -3.18055e-015 0 1.59028e-015 -4.77083e-015 0 7.95139e-016 -0.554402 -5.64558 -1.30135 
32.9157 95.8663 -27.9837 1.35401 -0.67214 1.55606 -0.323154 2.19567 -0.319296 3.79795 -1.13473 3.8253 -0.458486 4.47985 -7.61936 4.99962 -0.906496 -0.219739 -1.43494 -5.25671 2.7916 -4.31398 -3.22917 0.168741 1.05519 11.9666 0.0431847 -6.15863 -10.412 0.69008 1.9901 -7.06349 2.43913 -0.632165 4.39306 -0.62716 -0.632026 4.39305 -0.626976 1.12661 -8.18848 -1.69634 -24.0502 8.95583 0.916019 -57.8495 42.2009 3.23331 16.0885 -0.0423655 -22.0552 9.4563 1.90159 -4.04554 3.18055e-015 -3.18055e-015 -4.77083e-015 0 0 -1.59028e-015 25.4127 14.8042 14.8812 54.5032 30.6687 -5.4985 -10.5663 1.06547 14.3109 -5.36912 10.7272 13.7373 -3.18055e-015 9.54166e-015 -0 -6.36111e-015 3.18056e-015 -0 -0.406864 -5.91962 -1.31023 
32.9162 95.8654 -27.9925 1.43904 -0.685842 1.76775 -0.332273 2.17971 -0.381368 3.73412 -1.13366 4.69116 -0.401583 4.47418 -8.51073 5.03031 -0.836661 -0.225307 -1.30664 -5.28132 2.66789 -4.32993 -3.22204 -0.151373 0.894002 12.0967 0.049809 -6.10198 -10.4976 0.863578 1.99055 -7.06769 2.42434 -0.650261 4.36147 -0.750805 -0.650155 4.36148 -0.750882 1.15805 -7.80946 -1.61098 -24.057 8.59012 0.865987 -58.0198 41.8547 3.68117 16.1305 -0.573305 -22.5455 9.88104 1.86814 -3.94352 3.18055e-015 0 -3.18055e-015 3.18055e-015 0 -3.18055e-015 25.4815 14.3372 14.6424 53.3593 29.0043 -5.95975 -10.4645 0.377929 15.2288 -7.07411 9.66468 13.9617 6.36111e-015 0 -0 6.36111e-015 3.18056e-015 -1.59028e-015 -0.347392 -6.15297 -1.24273 
32.9257 95.8688 -28.0255 1.5086 -0.711081 1.9578 -0.348007 2.17601 -0.423529 3.69818 -1.20446 5.19137 -0.322331 4.60946 -9.05439 4.56974 -1.19109 -0.19041 -1.48611 -4.96109 2.79043 -4.36434 -3.20551 -0.433138 0.795728 12.1641 -0.0197421 -6.04325 -10.5537 1.06589 1.99793 -7.09836 2.44451 -0.680292 4.35411 -0.834729 -0.680292 4.35411 -0.83473 1.36343 -7.13344 -1.64441 -24.1085 7.95939 0.577378 -58.1153 41.5946 3.94716 16.1501 -0.803658 -22.7607 10.1709 1.65178 -3.9412 3.18055e-015 6.36111e-015 -0 0 6.36111e-015 -0 25.2303 13.6705 14.7603 52.2621 28.2224 -6.26625 -10.3626 -0.75865 15.9715 -7.07481 7.67038 13.045 -0 -3.18055e-015 -0 -0 -3.18056e-015 -0 -0.457257 -6.87887 -1.20779 
32.9213 95.8732 -28.0681 1.57454 -0.692043 2.15092 -0.359387 2.17453 -0.458435 3.64199 -1.2147 5.64569 -0.271099 4.48671 -9.67075 4.4996 -1.15333 -0.189141 -1.53223 -4.92143 2.83275 -4.39772 -3.22289 -0.662516 0.738247 12.1823 -0.0586182 -5.99898 -10.583 1.15121 1.9917 -7.07532 2.43978 -0.701147 4.35188 -0.90449 -0.701644 4.35189 -0.904377 1.34406 -6.22728 -1.72525 -23.9975 7.13471 0.151397 -57.9839 41.4693 4.00829 16.0931 -0.893078 -22.8152 10.124 1.59972 -3.97688 7.06225e-031 6.36111e-015 -6.36111e-015 -3.18055e-015 6.36111e-015 -6.36111e-015 25.4061 12.836 14.9334 51.0404 28.754 -7.13194 -10.675 -2.84267 17.6702 -5.58744 6.74249 11.5147 -3.18055e-015 0 -0 0 3.18056e-015 -0 -0.455194 -8.23825 -1.29641 
32.8899 95.8793 -28.1054 1.55904 -0.623558 2.38269 -0.328626 2.15834 -0.491921 3.6527 -1.33106 5.94524 -0.24823 4.49071 -10.1998 4.49152 -1.07529 -0.195677 -1.5406 -4.96181 2.82989 -4.38377 -3.23505 -0.914863 0.675619 12.1517 -0.0150714 -5.92788 -10.5692 1.19747 1.9781 -7.03018 2.42567 -0.638859 4.31885 -0.971665 -0.638755 4.31889 -0.972107 0.762611 -5.52112 -1.72216 -23.1549 6.52901 -0.191252 -57.8444 41.8296 3.56593 15.718 -1.16921 -22.3418 10.0126 1.7205 -3.88966 0 3.18055e-015 -0 3.18055e-015 3.18056e-015 -0 25.8879 12.2632 15.4478 50.5318 28.3099 -9.05274 -12.0352 -4.27611 20.856 -4.91207 8.20997 10.9411 -3.18055e-015 9.54166e-015 1.59028e-015 -3.18055e-015 6.36111e-015 4.77083e-015 -0.0952548 -9.15104 -1.4898 
